HIERARCHY
ROOT Hips
{
	OFFSET 0.000000 97.167313 0.000000
	CHANNELS 6 Xposition Yposition Zposition Xrotation Yrotation Zrotation
	JOINT Spine
	{
		OFFSET 0.000000 13.784798 0.064400
		CHANNELS 3 Xrotation Yrotation Zrotation
		JOINT Spine1
		{
			OFFSET 0.000000 12.037903 0.404700
			CHANNELS 3 Xrotation Yrotation Zrotation
			JOINT Spine2
			{
				OFFSET 0.000000 17.795601 0.420200
				CHANNELS 3 Xrotation Yrotation Zrotation
				JOINT Neck
				{
					OFFSET 0.000000 39.131302 11.954600
					CHANNELS 3 Xrotation Yrotation Zrotation
					JOINT Head
					{
						OFFSET 0.000000 14.456192 15.627699
						CHANNELS 3 Xrotation Yrotation Zrotation
						JOINT HeadTop_End
						{
							OFFSET 0.000000 15.703506 7.603401
							CHANNELS 3 Xrotation Yrotation Zrotation
							End Site
							{
								OFFSET 0.000000 17.447403 0.000000
							}
						}
					}
				}
				JOINT LeftShoulder
				{
					OFFSET 17.399500 24.608795 1.168800
					CHANNELS 3 Xrotation Yrotation Zrotation
					JOINT LeftArm
					{
						OFFSET 18.980635 5.765305 1.818600
						CHANNELS 3 Xrotation Yrotation Zrotation
						JOINT LeftForeArm
						{
							OFFSET 49.290169 0.000000 0.000000
							CHANNELS 3 Xrotation Yrotation Zrotation
							JOINT LeftHand
							{
								OFFSET 31.562012 0.000000 0.000000
								CHANNELS 3 Xrotation Yrotation Zrotation
								JOINT LeftHandThumb1
								{
									OFFSET 6.133995 -4.388519 7.076070
									CHANNELS 3 Xrotation Yrotation Zrotation
									JOINT LeftHandThumb2
									{
										OFFSET 6.037666 -3.485840 3.485847
										CHANNELS 3 Xrotation Yrotation Zrotation
										JOINT LeftHandThumb3
										{
											OFFSET 6.496506 -3.750763 3.750761
											CHANNELS 3 Xrotation Yrotation Zrotation
											JOINT LeftHandThumb4
											{
												OFFSET 5.616882 -3.242905 3.242910
												CHANNELS 3 Xrotation Yrotation Zrotation
												End Site
												{
													OFFSET -1.254608 7.132141 0.375429
												}
											}
										}
									}
								}
								JOINT LeftHandPinky1
								{
									OFFSET 18.920792 -0.453171 -11.426712
									CHANNELS 3 Xrotation Yrotation Zrotation
									JOINT LeftHandPinky2
									{
										OFFSET 4.919586 0.000000 0.000000
										CHANNELS 3 Xrotation Yrotation Zrotation
										JOINT LeftHandPinky3
										{
											OFFSET 5.233047 0.000000 0.000000
											CHANNELS 3 Xrotation Yrotation Zrotation
											JOINT LeftHandPinky4
											{
												OFFSET 5.571716 0.000000 0.000000
												CHANNELS 3 Xrotation Yrotation Zrotation
												End Site
												{
													OFFSET -3.459808 4.342407 -0.466164
												}
											}
										}
									}
								}
								JOINT LeftHandRing1
								{
									OFFSET 22.726120 -0.094986 -6.500475
									CHANNELS 3 Xrotation Yrotation Zrotation
									JOINT LeftHandRing2
									{
										OFFSET 6.408615 0.000000 0.000000
										CHANNELS 3 Xrotation Yrotation Zrotation
										JOINT LeftHandRing3
										{
											OFFSET 6.150223 0.000000 0.000000
											CHANNELS 3 Xrotation Yrotation Zrotation
											JOINT LeftHandRing4
											{
												OFFSET 6.145386 0.000000 0.000000
												CHANNELS 3 Xrotation Yrotation Zrotation
												End Site
												{
													OFFSET -3.671402 4.923981 -0.202372
												}
											}
										}
									}
								}
								JOINT LeftHandMiddle1
								{
									OFFSET 23.373947 0.000000 0.000001
									CHANNELS 3 Xrotation Yrotation Zrotation
									JOINT LeftHandMiddle2
									{
										OFFSET 6.996567 0.000000 0.000000
										CHANNELS 3 Xrotation Yrotation Zrotation
										JOINT LeftHandMiddle3
										{
											OFFSET 7.015945 0.000000 0.000000
											CHANNELS 3 Xrotation Yrotation Zrotation
											JOINT LeftHandMiddle4
											{
												OFFSET 7.721573 0.000000 0.000000
												CHANNELS 3 Xrotation Yrotation Zrotation
												End Site
												{
													OFFSET -4.651108 6.158463 0.251582
												}
											}
										}
									}
								}
								JOINT LeftHandIndex1
								{
									OFFSET 21.310577 -0.490082 6.209344
									CHANNELS 3 Xrotation Yrotation Zrotation
									JOINT LeftHandIndex2
									{
										OFFSET 7.536453 0.000000 0.000000
										CHANNELS 3 Xrotation Yrotation Zrotation
										JOINT LeftHandIndex3
										{
											OFFSET 7.512344 0.000000 0.000000
											CHANNELS 3 Xrotation Yrotation Zrotation
											JOINT LeftHandIndex4
											{
												OFFSET 10.212402 0.000000 0.000001
												CHANNELS 3 Xrotation Yrotation Zrotation
												End Site
												{
													OFFSET -5.180801 8.690506 1.388433
												}
											}
										}
									}
								}
							}
						}
					}
				}
				JOINT RightShoulder
				{
					OFFSET -17.399500 24.608795 1.168800
					CHANNELS 3 Xrotation Yrotation Zrotation
					JOINT RightArm
					{
						OFFSET -18.980635 5.765305 1.818600
						CHANNELS 3 Xrotation Yrotation Zrotation
						JOINT RightForeArm
						{
							OFFSET -49.290169 0.000000 0.000000
							CHANNELS 3 Xrotation Yrotation Zrotation
							JOINT RightHand
							{
								OFFSET -31.562012 0.000000 0.000000
								CHANNELS 3 Xrotation Yrotation Zrotation
								JOINT RightHandThumb1
								{
									OFFSET -6.133995 -4.388519 7.076070
									CHANNELS 3 Xrotation Yrotation Zrotation
									JOINT RightHandThumb2
									{
										OFFSET -6.037666 -3.485840 3.485847
										CHANNELS 3 Xrotation Yrotation Zrotation
										JOINT RightHandThumb3
										{
											OFFSET -6.496506 -3.750763 3.750761
											CHANNELS 3 Xrotation Yrotation Zrotation
											JOINT RightHandThumb4
											{
												OFFSET -5.616882 -3.242905 3.242910
												CHANNELS 3 Xrotation Yrotation Zrotation
												End Site
												{
													OFFSET 1.254608 7.132141 0.375429
												}
											}
										}
									}
								}
								JOINT RightHandIndex1
								{
									OFFSET -21.310577 -0.490082 6.209344
									CHANNELS 3 Xrotation Yrotation Zrotation
									JOINT RightHandIndex2
									{
										OFFSET -7.536453 0.000000 0.000000
										CHANNELS 3 Xrotation Yrotation Zrotation
										JOINT RightHandIndex3
										{
											OFFSET -7.512344 0.000000 0.000000
											CHANNELS 3 Xrotation Yrotation Zrotation
											JOINT RightHandIndex4
											{
												OFFSET -10.212402 0.000000 0.000001
												CHANNELS 3 Xrotation Yrotation Zrotation
												End Site
												{
													OFFSET 5.180801 8.690506 1.388433
												}
											}
										}
									}
								}
								JOINT RightHandMiddle1
								{
									OFFSET -23.373947 0.000000 0.000001
									CHANNELS 3 Xrotation Yrotation Zrotation
									JOINT RightHandMiddle2
									{
										OFFSET -6.996567 0.000000 0.000000
										CHANNELS 3 Xrotation Yrotation Zrotation
										JOINT RightHandMiddle3
										{
											OFFSET -7.015945 0.000000 0.000000
											CHANNELS 3 Xrotation Yrotation Zrotation
											JOINT RightHandMiddle4
											{
												OFFSET -7.721573 0.000000 0.000000
												CHANNELS 3 Xrotation Yrotation Zrotation
												End Site
												{
													OFFSET 4.651108 6.158463 0.251582
												}
											}
										}
									}
								}
								JOINT RightHandRing1
								{
									OFFSET -22.726120 -0.094986 -6.500475
									CHANNELS 3 Xrotation Yrotation Zrotation
									JOINT RightHandRing2
									{
										OFFSET -6.408615 0.000000 0.000000
										CHANNELS 3 Xrotation Yrotation Zrotation
										JOINT RightHandRing3
										{
											OFFSET -6.150223 0.000000 0.000000
											CHANNELS 3 Xrotation Yrotation Zrotation
											JOINT RightHandRing4
											{
												OFFSET -6.145386 0.000000 0.000000
												CHANNELS 3 Xrotation Yrotation Zrotation
												End Site
												{
													OFFSET 3.671402 4.923981 -0.202372
												}
											}
										}
									}
								}
								JOINT RightHandPinky1
								{
									OFFSET -18.920792 -0.453171 -11.426712
									CHANNELS 3 Xrotation Yrotation Zrotation
									JOINT RightHandPinky2
									{
										OFFSET -4.919586 0.000000 0.000000
										CHANNELS 3 Xrotation Yrotation Zrotation
										JOINT RightHandPinky3
										{
											OFFSET -5.233047 0.000000 0.000000
											CHANNELS 3 Xrotation Yrotation Zrotation
											JOINT RightHandPinky4
											{
												OFFSET -5.571716 0.000000 0.000000
												CHANNELS 3 Xrotation Yrotation Zrotation
												End Site
												{
													OFFSET 3.459808 4.342407 -0.466164
												}
											}
										}
									}
								}
							}
						}
					}
				}
			}
		}
	}
	JOINT LeftUpLeg
	{
		OFFSET 19.899099 -7.885101 -3.429500
		CHANNELS 3 Xrotation Yrotation Zrotation
		JOINT LeftLeg
		{
			OFFSET 1.745560 -36.997807 10.304700
			CHANNELS 3 Xrotation Yrotation Zrotation
			JOINT LeftFoot
			{
				OFFSET -1.745558 -29.803308 -13.615400
				CHANNELS 3 Xrotation Yrotation Zrotation
				JOINT LeftToeBase
				{
					OFFSET 1.181900 -18.539904 15.226099
					CHANNELS 3 Xrotation Yrotation Zrotation
					JOINT LeftToe_End
					{
						OFFSET -0.863701 1.402801 16.534700
						CHANNELS 3 Xrotation Yrotation Zrotation
						End Site
						{
							OFFSET 0.000000 16.616566 0.000000
						}
					}
				}
			}
		}
	}
	JOINT RightUpLeg
	{
		OFFSET -19.899099 -7.885101 -3.429500
		CHANNELS 3 Xrotation Yrotation Zrotation
		JOINT RightLeg
		{
			OFFSET -1.745560 -36.997807 10.304700
			CHANNELS 3 Xrotation Yrotation Zrotation
			JOINT RightFoot
			{
				OFFSET 1.745558 -29.803308 -13.615400
				CHANNELS 3 Xrotation Yrotation Zrotation
				JOINT RightToeBase
				{
					OFFSET -1.181900 -18.539904 15.226099
					CHANNELS 3 Xrotation Yrotation Zrotation
					JOINT RightToe_End
					{
						OFFSET 0.863701 1.402801 16.534700
						CHANNELS 3 Xrotation Yrotation Zrotation
						End Site
						{
							OFFSET 0.000000 16.616566 0.000000
						}
					}
				}
			}
		}
	}
}
MOTION
Frames: 4
Frame Time: 0.033333
-129.948364 58.871880 502.169189 45.930222 5.291894 -21.317577 14.519585 -5.855499 9.478903 7.598060 -1.561014 3.026162 7.580111 -1.552730 3.079789 4.941826 0.578261 2.799257 -29.560301 3.411417 1.733703 -0.000001 0.000000 -0.000000 2.512376 -23.998430 0.786004 -145.231432 -69.450251 -144.463828 0.000027 -37.883689 0.000008 20.024250 -22.629042 0.413320 -5.518270 -4.681810 4.315818 4.376918 1.835913 0.146968 -7.355831 -0.540538 13.115871 0.000003 -0.000001 0.000000 1.112554 21.733114 -8.774188 0.627693 2.640162 -26.742260 0.018605 0.467082 -4.562925 0.000003 0.000001 -0.000004 1.659867 11.693226 -9.861202 0.634248 2.653176 -26.884835 0.018602 0.467077 -4.562840 -0.000001 -0.000001 0.000002 0.164040 3.438744 -10.588723 0.627734 2.640284 -26.743498 0.018599 0.466939 -4.561430 -0.000002 0.000001 0.000006 -0.425281 -4.672566 -11.396208 0.627694 2.640210 -26.742694 0.018590 0.466905 -4.561190 -0.000003 0.000003 0.000002 -2.084697 18.687712 28.860698 -41.551937 21.712645 -4.555466 0.000006 13.223060 0.000005 -35.643100 32.213713 -2.745471 -0.562412 10.248500 6.857909 1.916471 3.806981 -23.068698 -13.556504 21.297261 -6.485348 -0.000000 -0.000001 0.000001 -1.059472 16.726170 4.365373 0.366757 -1.813199 22.867840 0.027572 -0.506596 6.231288 -0.000000 0.000000 0.000002 0.070358 -1.826358 -5.594894 0.366680 -1.813027 22.865433 0.019318 -0.424264 5.215314 -0.000000 0.000002 -0.000004 -0.385150 -12.571784 -2.827767 0.362021 -1.801933 22.717687 0.021219 -0.444485 5.464848 -0.000003 0.000003 -0.000003 0.736776 -27.374493 0.752750 0.364973 -1.808957 22.811336 0.031046 -0.537390 6.611731 -0.000000 -0.000003 0.000003 2.378220 -0.387682 12.466512 68.676664 5.311228 -0.794231 0.621298 8.438355 0.622508 -8.858087 0.000004 -0.000001 0.000001 -0.000000 0.000000 -111.192188 -0.495172 -8.416786 31.281952 -8.745804 4.754096 35.828997 1.267393 3.299606 0.421906 -0.004416 0.802756 -0.000000 -0.000001 -0.000000 
-129.862152 59.083893 507.919128 46.805722 3.219361 -21.816524 15.532443 -2.263218 7.160381 8.143459 -0.427673 2.191150 8.128668 -0.445594 2.212763 3.141766 -0.012094 2.993486 -31.121392 0.982339 1.354875 0.000002 0.000001 -0.000000 1.991909 -22.585238 -1.427385 -134.932463 -68.849434 -124.247671 0.000051 -32.629467 0.000022 24.957016 -22.681935 9.557382 -4.778085 -2.391954 3.815038 4.838276 4.818325 0.506584 -6.967292 1.871024 13.741574 -0.000001 0.000001 -0.000003 1.261948 21.914078 -17.294773 0.977867 3.242263 -33.559042 0.031784 0.610135 -5.964856 -0.000003 -0.000000 -0.000001 3.011097 11.958866 -18.473140 0.994931 3.267809 -33.859597 0.031791 0.610172 -5.965229 0.000000 0.000001 0.000003 0.386503 4.276947 -19.072697 0.977538 3.241736 -33.552912 0.031740 0.609803 -5.961681 0.000002 0.000000 0.000009 -0.156620 -3.558139 -19.803316 0.977528 3.241752 -33.552932 0.031742 0.609748 -5.961125 -0.000002 -0.000000 -0.000003 -1.363880 19.250796 23.553679 -45.971432 26.625925 1.843930 0.000012 9.671860 0.000004 -35.695603 30.659254 -6.632777 -0.562193 10.248897 6.858492 1.915504 3.813792 -23.073526 -13.556802 21.298268 -6.484958 0.000000 0.000001 0.000003 -1.059244 16.729257 4.356703 0.366632 -1.812899 22.863988 0.027560 -0.506458 6.229569 -0.000003 -0.000001 0.000001 0.070443 -1.825472 -5.604729 0.366547 -1.812703 22.861234 0.019306 -0.424091 5.213201 0.000001 -0.000001 -0.000001 -0.386989 -12.572099 -2.837881 0.361868 -1.801574 22.713029 0.021201 -0.444300 5.462510 0.000000 -0.000001 -0.000003 0.734209 -27.376839 0.742287 0.364808 -1.808579 22.806152 0.031030 -0.537249 6.610015 -0.000000 -0.000004 0.000005 -11.380950 -9.077772 8.272038 91.393955 5.509795 -3.217655 -7.441638 11.593056 0.475861 -12.094818 -0.000002 -0.000003 -0.000000 0.000000 -0.000000 -112.457323 -3.080419 -7.098231 39.960643 -6.252180 6.980365 26.574186 0.045249 1.823815 0.984209 -0.023984 1.859939 0.000000 0.000000 -0.000000 
-129.239532 61.076675 514.889771 47.176151 3.069764 -21.138238 17.167578 0.046806 4.261851 8.979969 -0.076826 1.256723 8.971536 -0.119191 1.282872 2.698399 -0.431121 2.836237 -31.315741 -1.455494 1.498830 0.000001 0.000000 0.000000 1.568899 -21.697312 -3.620598 -128.632843 -62.415546 -107.464407 0.000008 -20.569176 -0.000013 19.643846 -17.474131 10.465936 -3.943691 0.294936 3.192341 5.355271 8.295294 0.897704 -6.546505 4.686819 14.452159 0.000000 0.000001 -0.000002 1.432228 22.651185 -26.996572 1.458492 3.869056 -41.296905 0.051537 0.776143 -7.596652 0.000000 -0.000001 0.000001 4.526933 12.035739 -28.236779 1.491654 3.906400 -41.785912 0.051542 0.776276 -7.597801 0.000001 0.000001 0.000005 0.785493 5.174866 -28.699949 1.458124 3.868646 -41.291465 0.051469 0.775728 -7.592462 0.000001 -0.000000 0.000001 0.347831 -2.596345 -29.363315 1.458112 3.868610 -41.290959 0.051459 0.775648 -7.591724 -0.000003 0.000001 -0.000001 -0.292665 18.525633 16.806958 -49.414349 30.381545 9.356810 -0.000000 7.740605 -0.000005 -18.843812 28.227416 -10.476860 -0.567216 10.239367 6.844939 1.867428 4.201383 -23.314542 -13.549728 21.274808 -6.493963 -0.000003 0.000001 -0.000000 -0.934534 16.839864 3.772590 0.354559 -1.784016 22.479201 0.026559 -0.497183 6.115095 -0.000001 0.000002 0.000001 0.075141 -1.779985 -6.189863 0.355829 -1.787096 22.520167 0.018536 -0.415559 5.108152 -0.000000 0.000001 -0.000009 -0.493144 -12.533263 -3.429895 0.350918 -1.775181 22.361969 0.020429 -0.436154 5.362055 -0.000004 -0.000003 -0.000000 0.550499 -27.363322 0.153066 0.352701 -1.779535 22.419678 0.029973 -0.527998 6.495539 0.000004 0.000002 0.000004 -31.311435 -18.168325 0.000250 104.981087 5.564219 -3.883565 -11.869519 16.264970 -2.264603 -15.011064 0.000005 -0.000004 0.000000 0.000000 -0.000000 -109.642363 -4.380779 -5.972945 47.538141 -4.049964 7.687071 15.400410 -0.496842 0.660873 0.524596 -0.006833 0.996624 0.000000 0.000001 0.000000 
-128.136124 64.391853 522.016052 46.766193 4.637402 -19.923102 18.911184 0.809812 1.655655 10.067835 -0.083660 0.290622 10.066600 -0.183107 0.330113 3.367902 -0.657360 2.051925 -30.770193 -3.736006 1.870678 0.000003 0.000000 0.000000 1.349738 -20.881388 -4.715690 -125.387247 -56.621408 -95.853154 -0.000007 -8.926493 -0.000017 0.350183 -10.423259 4.197313 -3.148898 2.954164 2.541715 5.845062 11.714968 1.254816 -6.165472 7.457157 15.133344 0.000002 -0.000001 -0.000001 1.813294 23.866609 -36.490907 2.001233 4.409423 -48.805308 0.075550 0.938750 -9.200856 0.000001 -0.000000 -0.000000 5.944086 11.894114 -37.688748 2.053215 4.454237 -49.477740 0.075570 0.938914 -9.202648 0.000001 0.000005 -0.000001 1.311210 5.969208 -38.043075 2.000831 4.409090 -48.800226 0.075441 0.938156 -9.195059 0.000000 0.000000 0.000004 0.941815 -1.984130 -38.657549 2.000757 4.409002 -48.799028 0.075422 0.938055 -9.194038 -0.000001 0.000001 0.000002 0.376382 17.449680 11.388903 -50.033263 32.550513 14.494628 -0.000003 9.330793 0.000012 6.477298 28.123688 -13.501411 -0.569082 10.235827 6.839858 1.838951 4.426214 -23.456336 -13.547075 21.266016 -6.497333 -0.000000 0.000002 0.000003 -0.826771 16.909153 3.440745 0.347522 -1.766895 22.251855 0.025996 -0.491891 6.049654 -0.000001 -0.000002 0.000005 0.078116 -1.753241 -6.527985 0.349873 -1.772670 22.328266 0.018089 -0.410525 5.046199 0.000001 0.000001 -0.000006 -0.554593 -12.513470 -3.772433 0.344795 -1.760228 22.163349 0.019964 -0.431270 5.301787 -0.000000 -0.000003 0.000002 0.405979 -27.340926 -0.187720 0.345398 -1.761731 22.183134 0.029363 -0.522690 6.430072 -0.000002 -0.000003 0.000000 -57.614852 -22.309978 -9.168863 108.029147 7.392514 -2.594962 -10.037892 19.230140 -4.271978 -15.965062 0.000004 -0.000004 -0.000001 0.000001 0.000001 -102.500150 -4.554174 -5.477007 52.143764 -2.721817 7.471796 4.240389 -0.496495 0.102478 0.051934 -0.000069 0.100482 -0.000000 0.000001 0.000000 
